# xmcd CD database file
#
# Track frame offsets:
#	150
#	25578
#	54515
#	80145
#	119435
#
# Disc length: 1995 seconds
#
# Revision: 7
# Processed by: cddbd v1.5.2PL0 Copyright (c) Steve Scherf et al.
# Submitted via: CDex 1.70beta3
#
DISCID=3907c905
DTITLE=EGO-WRAPPIN' - Midnight Dejavu 色彩のブルース
DYEAR=2001
DGENRE=Blues
TTITLE0=～Midnight Dejavu～ 色彩のブルース
TTITLE1=Nervous Breakdown (Live)
TTITLE2=かつて．．。(live)
TTITLE3=byrd (live)
TTITLE4=老いぼれ犬のセレナーデ (Special Track)
EXTD=YEAR: 2001
EXTT0=
EXTT1=
EXTT2=
EXTT3=
EXTT4=
PLAYORDER=
